<svg xmlns="http://www.w3.org/2000/svg" viewBox="0 0 440.46 352.94"><defs><style>.cls-1{fill:#b6b7b6;}</style></defs><title>Asset 2</title><g id="Layer_2" data-name="Layer 2"><g id="Layer_1-2" data-name="Layer 1"><path class="cls-1" d="M440.46,110.3c0,40.05-21.51,77.33-48.23,105.48-23.27,24.51-51.45,42.9-77.86,63.49-22.84,17.8-60.23,46.1-79.29,73.67l-4.64-70.08,19.37-34.34-32.57-15.84,32.57-44L223.4,164.89l26.41-30.81-38.74-30.81,24-42C251.33,30.13,280.92,0,331.61,0,399.07,0,440.46,52.82,440.46,110.3Z"/><path class="cls-1" d="M220.1,188.66l-32.57,44,32.57,15.84-19.37,34.34,4.64,70.08c-19.05-27.57-56.44-55.87-79.28-73.67-26.41-20.59-54.59-39-77.86-63.49C21.51,187.63,0,150.35,0,110.3,0,52.82,41.38,0,108.85,0c50.69,0,80.27,30.13,96.52,61.22l-24,42.05,38.74,30.81-26.41,30.81Z"/></g></g></svg>