<svg xmlns="http://www.w3.org/2000/svg" viewBox="0 0 410.75 352.94"><defs><style>.cls-1{fill:#b6b7b6;}</style></defs><title>Asset 1</title><g id="Layer_2" data-name="Layer 2"><g id="Layer_1-2" data-name="Layer 1"><path class="cls-1" d="M410.75,110.3c0,40.05-21.51,77.33-48.23,105.48-23.27,24.51-51.45,42.9-77.86,63.49-22.84,17.8-60.24,46.1-79.29,73.67-19.05-27.57-56.44-55.87-79.28-73.67-26.41-20.59-54.59-39-77.87-63.49C21.51,187.63,0,150.35,0,110.3,0,52.82,41.38,0,108.85,0c50.69,0,80.27,30.13,96.52,61.22C221.62,30.13,251.21,0,301.89,0,369.36,0,410.75,52.82,410.75,110.3Z"/></g></g></svg>